<svg width="14" height="15" viewBox="0 0 14 15" fill="none" xmlns="http://www.w3.org/2000/svg">
  <path
    d="M11.8125 1.85791H4.8125C4.63845 1.85791 4.47153 1.92705 4.34846 2.05012C4.22539 2.17319 4.15625 2.34011 4.15625 2.51416V4.48291H2.1875C2.01345 4.48291 1.84653 4.55205 1.72346 4.67512C1.60039 4.79819 1.53125 4.96511 1.53125 5.13916V12.1392C1.53125 12.3132 1.60039 12.4801 1.72346 12.6032C1.84653 12.7263 2.01345 12.7954 2.1875 12.7954H9.1875C9.36155 12.7954 9.52847 12.7263 9.65154 12.6032C9.77461 12.4801 9.84375 12.3132 9.84375 12.1392V10.1704H11.8125C11.9865 10.1704 12.1535 10.1013 12.2765 9.9782C12.3996 9.85513 12.4688 9.68821 12.4688 9.51416V2.51416C12.4688 2.34011 12.3996 2.17319 12.2765 2.05012C12.1535 1.92705 11.9865 1.85791 11.8125 1.85791ZM8.53125 11.4829H2.84375V5.79541H8.53125V11.4829ZM11.1562 8.85791H9.84375V5.13916C9.84375 4.96511 9.77461 4.79819 9.65154 4.67512C9.52847 4.55205 9.36155 4.48291 9.1875 4.48291H5.46875V3.17041H11.1562V8.85791Z"
    fill="#d7b26d" />
</svg>