<svg width="14" height="11" viewBox="0 0 14 11" fill="none" xmlns="http://www.w3.org/2000/svg">
  <path
    d="M13.4767 2.02259L4.85169 10.6476C4.78494 10.7144 4.70567 10.7674 4.61841 10.8036C4.53116 10.8398 4.43763 10.8584 4.34317 10.8584C4.24872 10.8584 4.15519 10.8398 4.06793 10.8036C3.98068 10.7674 3.90141 10.7144 3.83466 10.6476L0.240907 7.05384C0.106041 6.91897 0.0302734 6.73605 0.0302734 6.54532C0.0302734 6.35459 0.106041 6.17167 0.240907 6.03681C0.375774 5.90194 0.558693 5.82617 0.749423 5.82617C0.940153 5.82617 1.12307 5.90194 1.25794 6.03681L4.34317 9.12294L12.4597 1.00556C12.5945 0.870689 12.7774 0.794922 12.9682 0.794922C13.1589 0.794922 13.3418 0.870689 13.4767 1.00556C13.6116 1.14042 13.6873 1.32334 13.6873 1.51407C13.6873 1.7048 13.6116 1.88772 13.4767 2.02259Z"
    fill="#d7b26d" />
</svg>