<svg width="24" height="25" viewBox="0 0 24 25" fill="none" xmlns="http://www.w3.org/2000/svg">
  <path
    d="M7 9.32617L10.75 12.3262C11.1047 12.6102 11.5456 12.7649 12 12.7649C12.4544 12.7649 12.8953 12.6102 13.25 12.3262L17 9.32617M21 17.3262V7.32617C21 6.79574 20.7893 6.28703 20.4142 5.91196C20.0391 5.53689 19.5304 5.32617 19 5.32617H5C4.46957 5.32617 3.96086 5.53689 3.58579 5.91196C3.21071 6.28703 3 6.79574 3 7.32617V17.3262C3 17.8566 3.21071 18.3653 3.58579 18.7404C3.96086 19.1155 4.46957 19.3262 5 19.3262H19C19.5304 19.3262 20.0391 19.1155 20.4142 18.7404C20.7893 18.3653 21 17.8566 21 17.3262Z"
    stroke="white" stroke-width="2" stroke-linecap="round" stroke-linejoin="round" />
</svg>