<svg width="30" height="31" viewBox="0 0 30 31" fill="none" xmlns="http://www.w3.org/2000/svg">
  <g clip-path="url(#clip0_178_12)">
    <path
      d="M25.6066 4.72002C22.7735 1.88695 19.0066 0.32666 15 0.32666C10.9934 0.32666 7.22654 1.88695 4.39336 4.72002C1.56029 7.5532 0 11.32 0 15.3267C0 19.3333 1.56029 23.1001 4.39336 25.9333C7.22654 28.7664 10.9934 30.3267 15 30.3267C19.0066 30.3267 22.7735 28.7664 25.6066 25.9333C28.4397 23.1001 30 19.3333 30 15.3267C30 11.32 28.4397 7.5532 25.6066 4.72002ZM24.3636 24.6903C21.8625 27.1914 18.5371 28.5688 15 28.5688C11.4629 28.5688 8.1375 27.1914 5.63637 24.6903C3.13523 22.1892 1.75781 18.8638 1.75781 15.3267C1.75781 11.7895 3.13523 8.46416 5.63637 5.96303C8.1375 3.46189 11.4629 2.08447 15 2.08447C18.5371 2.08447 21.8625 3.46189 24.3636 5.96303C26.8648 8.46416 28.2422 11.7895 28.2422 15.3267C28.2422 18.8638 26.8648 22.1892 24.3636 24.6903Z"
      fill="#d7b26d" />
    <path
      d="M15.0002 4.10938C8.81512 4.10938 3.7832 9.14129 3.7832 15.3264C3.7832 21.5115 8.81512 26.5434 15.0002 26.5434C21.1853 26.5434 26.2172 21.5115 26.2172 15.3264C26.2172 9.14129 21.1853 4.10938 15.0002 4.10938ZM15.0002 24.7856C9.78438 24.7856 5.54102 20.5422 5.54102 15.3264C5.54102 10.1105 9.78438 5.86719 15.0002 5.86719C20.2161 5.86719 24.4594 10.1105 24.4594 15.3264C24.4594 20.5422 20.2161 24.7856 15.0002 24.7856Z"
      fill="#d7b26d" />
    <path
      d="M9.95801 15.3267L14.9994 23.5356L20.0408 15.3267L14.9994 7.11768L9.95801 15.3267ZM17.7076 14.8863L14.9994 15.9297L12.2913 14.8864L14.9994 10.4766L17.7076 14.8863ZM13.0982 17.081L14.9994 17.8134L16.9006 17.081L14.9994 20.1767L13.0982 17.081Z"
      fill="#d7b26d" />
  </g>
  <defs>
    <clipPath id="clip0_178_12">
      <rect width="30" height="30" fill="white" transform="translate(0 0.32666)" />
    </clipPath>
  </defs>
</svg>