<svg width="19" height="17" viewBox="0 0 19 17" fill="none" xmlns="http://www.w3.org/2000/svg">
  <path opacity="0.2"
    d="M18.8438 2.35791V15.2954C18.8438 15.6767 18.6923 16.0423 18.4227 16.3119C18.1531 16.5815 17.7875 16.7329 17.4062 16.7329H1.59375C1.2125 16.7329 0.846867 16.5815 0.577284 16.3119C0.3077 16.0423 0.15625 15.6767 0.15625 15.2954V2.35791C0.15625 1.97666 0.3077 1.61103 0.577284 1.34144C0.846867 1.07186 1.2125 0.92041 1.59375 0.92041H17.4062C17.7875 0.92041 18.1531 1.07186 18.4227 1.34144C18.6923 1.61103 18.8438 1.97666 18.8438 2.35791Z"
    fill="#00EEFD" />
  <path
    d="M16.4767 5.02259L7.85169 13.6476C7.78494 13.7144 7.70567 13.7674 7.61841 13.8036C7.53116 13.8398 7.43763 13.8584 7.34317 13.8584C7.24872 13.8584 7.15519 13.8398 7.06793 13.8036C6.98068 13.7674 6.90141 13.7144 6.83466 13.6476L3.24091 10.0538C3.10604 9.91897 3.03027 9.73605 3.03027 9.54532C3.03027 9.35459 3.10604 9.17167 3.24091 9.03681C3.37577 8.90194 3.55869 8.82617 3.74942 8.82617C3.94015 8.82617 4.12307 8.90194 4.25794 9.03681L7.34317 12.1229L15.4597 4.00556C15.5945 3.87069 15.7774 3.79492 15.9682 3.79492C16.1589 3.79492 16.3418 3.87069 16.4767 4.00556C16.6116 4.14042 16.6873 4.32334 16.6873 4.51407C16.6873 4.7048 16.6116 4.88772 16.4767 5.02259Z"
    fill="#00EEFD" />
</svg>