<svg width="24" height="25" viewBox="0 0 24 25" fill="none" xmlns="http://www.w3.org/2000/svg">
  <path
    d="M18.53 9.32666L13 3.79666C12.8595 3.65597 12.6688 3.57684 12.47 3.57666H8C7.27065 3.57666 6.57118 3.86639 6.05546 4.38212C5.53973 4.89784 5.25 5.59731 5.25 6.32666V18.3267C5.25 19.056 5.53973 19.7555 6.05546 20.2712C6.57118 20.7869 7.27065 21.0767 8 21.0767H16C16.7293 21.0767 17.4288 20.7869 17.9445 20.2712C18.4603 19.7555 18.75 19.056 18.75 18.3267V9.82666C18.7421 9.63826 18.6636 9.45975 18.53 9.32666ZM13.25 6.13666L16.19 9.07666H13.25V6.13666ZM16 19.5767H8C7.66848 19.5767 7.35054 19.445 7.11612 19.2105C6.8817 18.9761 6.75 18.6582 6.75 18.3267V6.32666C6.75 5.99514 6.8817 5.6772 7.11612 5.44278C7.35054 5.20836 7.66848 5.07666 8 5.07666H11.75V9.82666C11.7526 10.0248 11.8324 10.214 11.9725 10.3541C12.1126 10.4942 12.3019 10.5741 12.5 10.5767H17.25V18.3267C17.25 18.6582 17.1183 18.9761 16.8839 19.2105C16.6495 19.445 16.3315 19.5767 16 19.5767Z"
    fill="#00EEFD" />
  <path
    d="M13.4895 15.1768C12.8746 14.791 12.4119 14.2046 12.1795 13.5168C12.3948 12.8734 12.4598 12.1893 12.3695 11.5168C12.3407 11.3474 12.2581 11.1918 12.1339 11.073C12.0097 10.9542 11.8506 10.8786 11.6801 10.8573C11.5096 10.8359 11.3367 10.8701 11.1871 10.9547C11.0376 11.0392 10.9192 11.1697 10.8495 11.3268C10.7357 12.1352 10.8215 12.9592 11.0995 13.7268C10.7197 14.6141 10.2959 15.4818 9.82952 16.3268C9.11952 16.7268 8.14952 17.3268 7.99952 18.0168C7.87952 18.5768 8.92952 20.0168 10.7195 16.8968C11.5155 16.6014 12.3307 16.3608 13.1595 16.1768C13.7722 16.5271 14.4556 16.7356 15.1595 16.7868C15.3211 16.791 15.4804 16.7473 15.6173 16.6613C15.7541 16.5752 15.8625 16.4506 15.9288 16.3032C15.995 16.1557 16.0162 15.9919 15.9896 15.8324C15.9631 15.673 15.89 15.5249 15.7795 15.4068C15.3595 14.9768 14.1095 15.0968 13.4895 15.1768ZM8.70952 18.1768C8.98976 17.6973 9.35985 17.2762 9.79952 16.9368C9.11952 18.0168 8.70952 18.2068 8.70952 18.1868V18.1768ZM11.6295 11.3668C11.8895 11.3668 11.8695 12.5168 11.6895 12.8268C11.5539 12.3552 11.5334 11.858 11.6295 11.3768V11.3668ZM10.7595 16.2468C11.0983 15.6287 11.3924 14.987 11.6395 14.3268C11.9044 14.8198 12.2729 15.2496 12.7195 15.5868C12.0486 15.7549 11.3929 15.979 10.7595 16.2568V16.2468ZM15.4595 16.0668C15.4595 16.0668 15.2795 16.2868 14.1295 15.7868C15.3795 15.7068 15.5895 15.9968 15.4595 16.0768V16.0668Z"
    fill="#00EEFD" />
</svg>