<svg width="31" height="31" viewBox="0 0 31 31" fill="none" xmlns="http://www.w3.org/2000/svg">
  <g clip-path="url(#clip0_178_28)">
    <path
      d="M15.333 0.32666C23.6177 0.32666 30.333 7.04197 30.333 15.3267C30.333 23.6113 23.6177 30.3267 15.333 30.3267C7.04832 30.3267 0.333008 23.6113 0.333008 15.3267C0.333008 7.04197 7.04832 0.32666 15.333 0.32666ZM15.333 5.95166L13.6464 6.94072L9.05176 9.6501L7.36426 10.6392V20.0142L9.05082 21.0032L13.6886 23.7126L15.3752 24.7017L17.0618 23.7126L21.6152 21.0032L23.3018 20.0142V10.6392L21.6152 9.6501L17.0196 6.94072L15.333 5.95166ZM15.333 9.90791L19.9286 12.6173V18.036L15.333 20.7454L10.7374 18.036V12.6173L15.333 9.90791Z"
      fill="#d7b26d" />
  </g>
  <defs>
    <clipPath id="clip0_178_28">
      <rect width="30" height="30" fill="white" transform="translate(0.333008 0.32666)" />
    </clipPath>
  </defs>
</svg>