<svg width="16" height="17" viewBox="0 0 16 17" fill="none" xmlns="http://www.w3.org/2000/svg">
  <path opacity="0.2"
    d="M14.8438 8.5C14.8438 9.90919 14.4259 11.2867 13.643 12.4584C12.8601 13.6301 11.7473 14.5434 10.4454 15.0826C9.14345 15.6219 7.71085 15.763 6.32873 15.4881C4.94662 15.2132 3.67707 14.5346 2.68062 13.5381C1.68417 12.5417 1.00558 11.2721 0.730658 9.89002C0.455738 8.5079 0.596837 7.0753 1.13611 5.77338C1.67539 4.47146 2.58862 3.35868 3.76032 2.57578C4.93202 1.79287 6.30956 1.375 7.71875 1.375C9.60842 1.375 11.4207 2.12567 12.7569 3.46186C14.0931 4.79806 14.8438 6.61033 14.8438 8.5Z"
    fill="#d7b26d" />
  <path
    d="M8.60938 12.3594C8.60938 12.5355 8.55714 12.7077 8.45928 12.8542C8.36142 13.0006 8.22232 13.1148 8.05958 13.1822C7.89684 13.2496 7.71777 13.2673 7.545 13.2329C7.37224 13.1985 7.21354 13.1137 7.08899 12.9891C6.96443 12.8646 6.87961 12.7059 6.84524 12.5331C6.81088 12.3604 6.82851 12.1813 6.89592 12.0185C6.96333 11.8558 7.07749 11.7167 7.22395 11.6188C7.37041 11.521 7.5426 11.4688 7.71875 11.4688C7.95496 11.4688 8.1815 11.5626 8.34852 11.7296C8.51554 11.8966 8.60938 12.1232 8.60938 12.3594ZM7.71875 4.34375C6.08149 4.34375 4.75 5.54238 4.75 7.01562V7.3125C4.75 7.46997 4.81256 7.621 4.92391 7.73234C5.03526 7.84369 5.18628 7.90625 5.34375 7.90625C5.50123 7.90625 5.65225 7.84369 5.7636 7.73234C5.87495 7.621 5.9375 7.46997 5.9375 7.3125V7.01562C5.9375 6.19922 6.73684 5.53125 7.71875 5.53125C8.70067 5.53125 9.5 6.19922 9.5 7.01562C9.5 7.83203 8.70067 8.5 7.71875 8.5C7.56128 8.5 7.41026 8.56256 7.29891 8.6739C7.18756 8.78525 7.125 8.93628 7.125 9.09375V9.6875C7.125 9.84497 7.18756 9.996 7.29891 10.1073C7.41026 10.2187 7.56128 10.2812 7.71875 10.2812C7.87623 10.2812 8.02725 10.2187 8.1386 10.1073C8.24995 9.996 8.3125 9.84497 8.3125 9.6875V9.63406C9.66625 9.38543 10.6875 8.30555 10.6875 7.01562C10.6875 5.54238 9.35602 4.34375 7.71875 4.34375ZM15.4375 8.5C15.4375 10.0266 14.9848 11.519 14.1367 12.7883C13.2885 14.0576 12.083 15.047 10.6726 15.6312C9.26217 16.2154 7.71019 16.3683 6.2129 16.0704C4.71561 15.7726 3.34026 15.0375 2.26077 13.958C1.18129 12.8785 0.446147 11.5031 0.148317 10.0059C-0.149513 8.50856 0.00334441 6.95658 0.587558 5.54616C1.17177 4.13574 2.1611 2.93024 3.43045 2.08209C4.69979 1.23395 6.19213 0.78125 7.71875 0.78125C9.76523 0.783411 11.7273 1.59733 13.1743 3.04441C14.6214 4.49148 15.4353 6.45352 15.4375 8.5ZM14.25 8.5C14.25 7.20824 13.867 5.94549 13.1493 4.87143C12.4316 3.79737 11.4116 2.96025 10.2182 2.46591C9.02472 1.97158 7.71151 1.84224 6.44457 2.09425C5.17763 2.34626 4.01387 2.9683 3.10046 3.88171C2.18705 4.79512 1.56501 5.95888 1.313 7.22582C1.06099 8.49275 1.19033 9.80597 1.68467 10.9994C2.179 12.1928 3.01613 13.2129 4.09019 13.9305C5.16424 14.6482 6.42699 15.0312 7.71875 15.0312C9.45035 15.0293 11.1105 14.3405 12.3349 13.1161C13.5593 11.8917 14.248 10.2316 14.25 8.5Z"
    fill="#d7b26d" />
</svg>