<svg width="31" height="31" viewBox="0 0 31 31" fill="none" xmlns="http://www.w3.org/2000/svg">
  <path fill-rule="evenodd" clip-rule="evenodd"
    d="M5.25977 13.0014H23.241C23.466 13.0014 23.6723 13.0951 23.841 13.2639L26.691 16.1889C27.216 16.7326 26.841 17.6514 26.091 17.6514H8.10977C7.88477 17.6514 7.67852 17.5576 7.50977 17.3889L4.65977 14.4639C4.13477 13.9201 4.50977 13.0014 5.25977 13.0014ZM4.65977 9.12012L7.50977 6.19512C7.65977 6.02637 7.88477 5.93262 8.10977 5.93262H26.0723C26.8223 5.93262 27.1973 6.85137 26.6723 7.39512L23.841 10.3201C23.691 10.4889 23.466 10.5826 23.241 10.5826H5.25977C4.50977 10.5826 4.13477 9.66387 4.65977 9.12012ZM26.6723 21.5139L23.8223 24.4389C23.6535 24.6076 23.4473 24.7014 23.2223 24.7014H5.25977C4.50977 24.7014 4.13477 23.7826 4.65977 23.2389L7.50977 20.3139C7.65977 20.1451 7.88477 20.0514 8.10977 20.0514H26.0723C26.8223 20.0514 27.1973 20.9701 26.6723 21.5139Z"
    fill="#d7b26d" />
</svg>