<svg width="24" height="24" viewBox="0 0 24 24" fill="none" xmlns="http://www.w3.org/2000/svg">
  <path
    d="M9.00011 12.5L6.50011 15L9.00011 17.5L11.5001 15L9.00011 12.5ZM15.0001 2.5C13.3597 2.50003 11.7799 3.12033 10.5777 4.23648C9.37548 5.35262 8.63976 6.88206 8.51811 8.518C7.27701 8.61026 6.08848 9.05689 5.09376 9.8048C4.09903 10.5527 3.33993 11.5705 2.90665 12.7371C2.47337 13.9038 2.38412 15.1703 2.64952 16.3862C2.91491 17.6021 3.52379 18.7163 4.40381 19.5963C5.28382 20.4763 6.39797 21.0852 7.61387 21.3506C8.82977 21.616 10.0963 21.5267 11.263 21.0935C12.4296 20.6602 13.4474 19.9011 14.1953 18.9064C14.9432 17.9116 15.3898 16.7231 15.4821 15.482C17.1594 15.3569 18.7228 14.5866 19.844 13.3328C20.9651 12.0791 21.5566 10.4396 21.4942 8.75883C21.4318 7.07808 20.7204 5.48695 19.5093 4.3198C18.2983 3.15265 16.682 2.50036 15.0001 2.5ZM15.3231 13.489C15.043 12.3211 14.4452 11.2534 13.5959 10.4042C12.7467 9.55491 11.679 8.95714 10.5111 8.677C10.5731 7.81679 10.8811 6.99252 11.3982 6.30232C11.9154 5.61213 12.6199 5.08508 13.4281 4.78392C14.2363 4.48276 15.1139 4.42018 15.9566 4.60363C16.7994 4.78708 17.5716 5.20883 18.1814 5.81867C18.7913 6.42851 19.213 7.20076 19.3965 8.04347C19.5799 8.88618 19.5174 9.76385 19.2162 10.572C18.915 11.3802 18.388 12.0848 17.6978 12.6019C17.0076 13.1191 16.1833 13.427 15.3231 13.489ZM13.5001 15C13.5001 16.1935 13.026 17.3381 12.1821 18.182C11.3382 19.0259 10.1936 19.5 9.00011 19.5C7.80664 19.5 6.66205 19.0259 5.81813 18.182C4.97422 17.3381 4.50011 16.1935 4.50011 15C4.50011 13.8065 4.97422 12.6619 5.81813 11.818C6.66205 10.9741 7.80664 10.5 9.00011 10.5C10.1936 10.5 11.3382 10.9741 12.1821 11.818C13.026 12.6619 13.5001 13.8065 13.5001 15ZM3.00011 7C3.00011 5.93913 3.42154 4.92172 4.17169 4.17157C4.92183 3.42143 5.93925 3 7.00011 3H8.50011V5H7.00011C6.46968 5 5.96097 5.21071 5.5859 5.58579C5.21083 5.96086 5.00011 6.46957 5.00011 7V8.5H3.00011V7ZM19.0001 17V15.5H21.0001V17C21.0001 18.0609 20.5787 19.0783 19.8285 19.8284C19.0784 20.5786 18.061 21 17.0001 21H15.5001V19H17.0001C17.5305 19 18.0393 18.7893 18.4143 18.4142C18.7894 18.0391 19.0001 17.5304 19.0001 17Z"
    fill="#d7b26d" />
</svg>