<svg width="39" height="38" viewBox="0 0 39 38" fill="none" xmlns="http://www.w3.org/2000/svg">
  <path fill-rule="evenodd" clip-rule="evenodd"
    d="M22.0037 9.54905C21.7925 10.0604 21.2257 10.3177 20.6831 10.2096C20.1181 10.0971 19.5337 10.0381 18.9356 10.0381C14.0216 10.0381 10.038 14.0217 10.038 18.9357C10.038 23.8497 14.0216 27.8334 18.9356 27.8334C19.5664 27.8334 20.1819 27.7677 20.7756 27.6429C21.3218 27.528 21.8963 27.7847 22.1094 28.3006L25.1491 35.6598C25.379 36.2163 25.1027 36.8554 24.5274 37.033C22.7601 37.5784 20.8824 37.872 18.936 37.872C8.47794 37.872 0 29.3941 0 18.936C0 8.47794 8.47794 0 18.936 0C20.8429 0 22.6839 0.281859 24.4198 0.806186C24.9984 0.980972 25.2778 1.6224 25.0471 2.18108L22.0037 9.54905ZM24.0222 11.0933C23.6992 10.9406 23.5134 10.5844 23.5943 10.2531C23.6059 10.2058 23.6229 10.1589 23.6457 10.1133L24.1523 9.10023L27.1858 1.86645L27.1858 1.86644C27.2532 1.70571 27.4379 1.62932 27.598 1.69834C27.7131 1.74797 27.7866 1.8617 27.7866 1.98703V17.4909V17.4909V20.0766V35.5804C27.7866 35.7058 27.7131 35.8195 27.598 35.8691C27.4379 35.9382 27.2532 35.8618 27.1858 35.701L24.1523 28.4672L23.6457 27.4542C23.4632 27.089 23.6531 26.6487 24.0222 26.4742C24.0532 26.4596 24.0788 26.4438 24.1076 26.4261L24.1122 26.4232C24.1326 26.4107 24.1536 26.3988 24.1751 26.3877C24.2622 26.3429 24.3484 26.2967 24.4337 26.2491C24.5253 26.198 24.6236 26.156 24.727 26.1227C25.1369 25.9906 25.5052 25.6671 25.5052 25.2364V20.0766V17.4909V17.4909V12.3311C25.5052 11.9542 25.2232 11.6594 24.8781 11.5031C24.8288 11.4808 24.7782 11.4613 24.727 11.4448C24.6365 11.4156 24.5499 11.3798 24.4684 11.3371C24.4567 11.331 24.4451 11.3248 24.4337 11.3184C24.3484 11.2708 24.2622 11.2246 24.1751 11.1797C24.1536 11.1687 24.1326 11.1568 24.1122 11.1442L24.1076 11.1414C24.0788 11.1237 24.0532 11.1079 24.0222 11.0933ZM29.3076 31.5126C29.3076 33.3669 31.2887 34.4889 32.6752 33.2575C33.1609 32.8262 33.4142 32.1996 33.4142 31.5499V6.63894C33.4142 5.98932 33.1609 5.36271 32.6752 4.93133C31.2887 3.70002 29.3076 4.82198 29.3076 6.67624V10.6531C29.3076 11.0731 29.6481 11.4135 30.0681 11.4135H30.6765C31.0965 11.4135 31.437 11.754 31.437 12.174V26.0148C31.437 26.4348 31.0965 26.7753 30.6765 26.7753H30.0681C29.6481 26.7753 29.3076 27.1158 29.3076 27.5358V31.5126ZM37.7404 23.4888C38.0708 22.0982 38.2479 20.6482 38.2528 19.1577V19.0312C38.2479 17.5407 38.0708 16.0907 37.7404 14.7001C37.6026 14.1203 37.3543 13.7058 37.0503 13.4402C36.7048 13.1385 36.2755 13.4911 36.2755 13.9497V24.2391C36.2755 24.6978 36.7048 25.0504 37.0503 24.7487C37.3543 24.4831 37.6026 24.0686 37.7404 23.4888Z"
    fill="url(#paint0_linear_213_87)" />
  <defs>
    <linearGradient id="paint0_linear_213_87" x1="34.5462" y1="28.5883" x2="34.5462" y2="-1.90121"
      gradientUnits="userSpaceOnUse">
      <stop stop-color="#d7b26d" />
      <stop offset="1" stop-color="#7624FD" />
    </linearGradient>
  </defs>
</svg>