<svg width="14" height="14" viewBox="0 0 14 14" fill="none" xmlns="http://www.w3.org/2000/svg">
  <g clip-path="url(#clip0_151_584)">
    <path fill-rule="evenodd" clip-rule="evenodd"
      d="M7 14C3.13381 14 0 10.8662 0 7C0 3.13381 3.13381 0 7 0C10.8662 0 14 3.13381 14 7C14 10.8662 10.8662 14 7 14ZM7.84088 6.03444V4.99931H10.2095V3.42081H3.76031V4.99931H6.12894V6.034C4.20394 6.12238 2.75625 6.50387 2.75625 6.96062C2.75625 7.41738 4.20394 7.79844 6.12894 7.88725V11.2044H7.84088V7.88637C9.76281 7.798 11.207 7.41694 11.207 6.96062C11.207 6.50431 9.76281 6.12325 7.84088 6.03444ZM7.84088 7.60506V7.60419C7.79275 7.60769 7.54469 7.62256 6.99125 7.62256C6.54937 7.62256 6.23831 7.60944 6.12894 7.60419V7.6055C4.42794 7.53069 3.15831 7.2345 3.15831 6.88013C3.15831 6.52619 4.42794 6.23 6.12894 6.15387V7.31062C6.24006 7.3185 6.55856 7.33731 6.99869 7.33731C7.52675 7.33731 7.79144 7.31544 7.84088 7.31106V6.15475C9.53838 6.23044 10.8049 6.52662 10.8049 6.88013C10.8049 7.2345 9.53838 7.52981 7.84088 7.60506Z"
      fill="#30CA3F" />
  </g>
  <defs>
    <clipPath id="clip0_151_584">
      <rect width="14" height="14" fill="white" />
    </clipPath>
  </defs>
</svg>