<svg xmlns="http://www.w3.org/2000/svg" xml:space="preserve" width="2000" height="266" data-id="lg_jpZ4eHkxfqxqz2lGJM"
  data-version="1" viewBox="0 0 2000 266">
  <g data-padding="20">
    <g transform="translate(10 4.758)scale(.96422)">
      <path fill="#d7b26d" d="M895.542.243a132.757 132.757 0 1 0 0 265.514 132.757 132.757 0 1 0 0-265.514" />
      <rect width="317.799" height="207.174" x="470.962" y="-103.926" fill="none" rx="0" ry="0"
        transform="translate(367.29 133.77)scale(1.21)" />
      <path fill="#fff"
        d="M1008.722 117.49h-7.84V57.73l-.55 3.7-20.25 56.06h-4.13l-20.43-56.06-.49-3.7v59.76h-7.84V30.3h4.07l26.45 71.51.24 3.22.25-3.22 26.38-71.51h4.14Zm53.5-17.08q0 3.77-1.43 7.11-1.43 3.35-3.92 5.84-2.5 2.49-5.84 3.92t-7.11 1.43h-4.99q-3.77 0-7.11-1.43-3.35-1.43-5.84-3.92t-3.92-5.84q-1.43-3.34-1.43-7.11V72.32q0-3.77 1.43-7.12 1.43-3.34 3.92-5.83 2.49-2.5 5.84-3.92 3.34-1.43 7.11-1.43h4.99q3.77 0 7.11 1.43 3.34 1.42 5.84 3.92 2.49 2.49 3.92 5.83 1.43 3.35 1.43 7.12v14.65h-34.11v13.86q0 2.25.85 4.23t2.31 3.43q1.46 1.46 3.43 2.32 1.98.85 4.23.85h4.99q2.25 0 4.22-.85 1.98-.86 3.44-2.32 1.46-1.45 2.31-3.43t.85-4.23V96.7l7.48 1.22Zm-7.48-19.28v-9.24q0-2.25-.85-4.22-.85-1.98-2.31-3.44t-3.44-2.31q-1.97-.85-4.22-.85h-4.99q-2.25 0-4.23.85-1.97.85-3.43 2.31t-2.31 3.44q-.85 1.97-.85 4.22v9.24Zm90.16 36.36h-7.48v-45.6q0-2.25-.85-4.22-.85-1.98-2.31-3.44t-3.43-2.31q-1.98-.85-4.23-.85h-3.71q-2.25 0-4.22.85-1.98.85-3.47 2.31t-2.34 3.44q-.85 1.97-.85 4.22v45.6h-7.42v-45.6q0-2.25-.85-4.22-.85-1.98-2.34-3.44t-3.47-2.31q-1.97-.85-4.22-.85h-3.71q-2.25 0-4.23.85-1.97.85-3.43 2.31t-2.31 3.44q-.86 1.97-.86 4.22v45.6h-7.47V55.23h2.49l4.07 6.33q2.56-3.47 6.42-5.51 3.86-2.03 8.42-2.03h.61q5.29 0 9.54 2.61 4.26 2.62 6.57 6.93 1.15-2.13 2.86-3.89 1.7-1.76 3.77-3.01 2.06-1.25 4.5-1.94 2.43-.7 5.04-.7h.61q3.77 0 7.11 1.43 3.35 1.42 5.84 3.92 2.49 2.49 3.92 5.83 1.43 3.35 1.43 7.12Zm51.07-17.08q0 3.77-1.43 7.11-1.43 3.35-3.92 5.84t-5.84 3.92q-3.34 1.43-7.11 1.43h-4.99q-3.77 0-7.11-1.43-3.35-1.43-5.84-3.92t-3.92-5.84q-1.43-3.34-1.43-7.11V72.32q0-3.77 1.43-7.12 1.43-3.34 3.92-5.83 2.49-2.5 5.84-3.92 3.34-1.43 7.11-1.43h4.99q3.77 0 7.11 1.43 3.35 1.42 5.84 3.92 2.49 2.49 3.92 5.83 1.43 3.35 1.43 7.12v14.65h-34.11v13.86q0 2.25.85 4.23t2.31 3.43q1.46 1.46 3.44 2.32 1.97.85 4.22.85h4.99q2.25 0 4.22-.85 1.98-.86 3.44-2.32 1.46-1.45 2.31-3.43t.85-4.23V96.7l7.48 1.22Zm-7.48-19.28v-9.24q0-2.25-.85-4.22-.85-1.98-2.31-3.44t-3.44-2.31q-1.97-.85-4.22-.85h-4.99q-2.25 0-4.22.85-1.98.85-3.44 2.31t-2.31 3.44q-.85 1.97-.85 4.22v9.24Zm-192.24 146.13h-4.13l-36.36-63.48-.73-3.77v67.25h-7.84v-87.19h4.07l36.36 63.54.79 3.7v-67.24h7.84Zm53.56-17.1q0 3.77-1.42 7.12-1.43 3.34-3.93 5.83-2.49 2.5-5.83 3.93-3.35 1.42-7.12 1.42h-4.98q-3.77 0-7.12-1.42-3.34-1.43-5.83-3.93-2.5-2.49-3.93-5.83-1.42-3.35-1.42-7.12v-28.09q0-3.77 1.42-7.11 1.43-3.35 3.93-5.84 2.49-2.49 5.83-3.92 3.35-1.43 7.12-1.43h4.98q3.77 0 7.12 1.43 3.34 1.43 5.83 3.92 2.5 2.49 3.93 5.84 1.42 3.34 1.42 7.11v14.66h-34.11v13.86q0 2.25.86 4.22.85 1.98 2.31 3.44t3.43 2.31q1.98.85 4.23.85h4.98q2.25 0 4.23-.85 1.97-.85 3.43-2.31t2.31-3.44q.86-1.97.86-4.22v-4.14l7.47 1.22Zm-7.47-19.27v-9.24q0-2.25-.86-4.23-.85-1.98-2.31-3.43-1.46-1.46-3.43-2.32-1.98-.85-4.23-.85h-4.98q-2.25 0-4.23.85-1.97.86-3.43 2.32-1.46 1.45-2.31 3.43-.86 1.98-.86 4.23v9.24Zm46.44 36.36h-6.81q-3.4 0-6.41-1.28t-5.23-3.53-3.53-5.22q-1.31-2.98-1.31-6.39V172.1h-11.18v-7.11h11.18v-14.96l7.48-1.22v16.18h15.81v7.11h-15.81v39.1q0 1.88.7 3.49t1.92 2.83q1.21 1.22 2.86 1.91 1.64.7 3.52.7h6.81Zm81.47-62.26-20.79 62.26h-4.08l-14.59-46.94-.24-3.22-.25 3.22-14.59 46.94h-4.13l-20.8-62.26h7.6l14.84 47.06.24 3.22.24-3.22 14.6-47.06h4.5l14.53 47.06.24 3.22.24-3.22 14.84-47.06Zm44.86 45.17q0 3.77-1.42 7.12-1.43 3.34-3.93 5.83-2.49 2.5-5.83 3.93-3.35 1.42-7.12 1.42h-4.98q-3.77 0-7.12-1.42-3.34-1.43-5.83-3.93-2.5-2.49-3.93-5.83-1.42-3.35-1.42-7.12v-28.09q0-3.77 1.42-7.11 1.43-3.35 3.93-5.84 2.49-2.49 5.83-3.92 3.35-1.43 7.12-1.43h4.98q3.77 0 7.12 1.43 3.34 1.43 5.83 3.92 2.5 2.49 3.93 5.84 1.42 3.34 1.42 7.11Zm-7.47.43v-28.94q0-2.25-.86-4.23-.85-1.98-2.31-3.43-1.45-1.46-3.43-2.32-1.98-.85-4.23-.85h-4.98q-2.25 0-4.23.85-1.97.86-3.43 2.32-1.46 1.45-2.31 3.43-.86 1.98-.86 4.23v28.94q0 2.25.86 4.22.85 1.98 2.31 3.44t3.43 2.31q1.98.85 4.23.85h4.98q2.25 0 4.23-.85t3.43-2.31q1.46-1.46 2.31-3.44.86-1.97.86-4.22m42.73-38.49h-7.48q-2.25 0-4.22.85-1.98.85-3.44 2.31t-2.31 3.44q-.85 1.97-.85 4.22v44.33h-7.48v-62.26h2.5l4.07 6.32q2.55-3.47 6.41-5.5 3.87-2.04 8.43-2.04h4.37Zm51.07 55.16h-9.73l-25.41-31.13 25.41-31.13h9.73l-26.02 31.13Zm-36.6 0h-7.48v-87.19h7.48Z" />
    </g>
    <path fill="transparent" stroke="transparent" d="M735.449 0h559v266h-559z" />
  </g>
</svg>